<?xml version="1.0" encoding="UTF-8" standalone="no"?> <svg id="Line_gradient" data-name="Line gradient" xmlns="http://www.w3.org/2000/svg" xmlns:xlink="http://www.w3.org/1999/xlink" viewBox="0 0 64 64"><defs><style>.cls-1{fill:url(#linear-gradient);}</style><linearGradient id="linear-gradient" x1="7.75391" y1="32.00275" x2="56.24023" y2="32.00275" gradientUnits="userSpaceOnUse"><stop offset="0" stop-color="#ff81ff"/><stop offset="1" stop-color="#a93aff"/></linearGradient></defs><path class="cls-1" d="M24.46289,36.75537a4.18809,4.18809,0,1,0,5.92285,5.92285L50.5918,22.47217A9.06378,9.06378,0,0,0,37.77344,9.6543L14.96338,32.46484A14.37243,14.37243,0,0,0,35.28906,52.79053L53.56055,34.519a1.49984,1.49984,0,0,1,2.12109,2.1211L37.41016,54.91162A17.37211,17.37211,0,1,1,12.84229,30.34375L35.65234,7.5332A12.06346,12.06346,0,0,1,52.71289,24.59326L32.50684,44.79932a7.18777,7.18777,0,1,1-10.165-10.165L38.31445,18.66113a1.49984,1.49984,0,0,1,2.1211,2.1211Z"/></svg>