<?xml version="1.0" encoding="UTF-8"?>
<!DOCTYPE svg PUBLIC "-//W3C//DTD SVG 1.1//EN" "http://www.w3.org/Graphics/SVG/1.1/DTD/svg11.dtd">
<!-- Creator: CorelDRAW -->
<svg xmlns="http://www.w3.org/2000/svg" xml:space="preserve" width="512px" height="512px" version="1.1" style="shape-rendering:geometricPrecision; text-rendering:geometricPrecision; image-rendering:optimizeQuality; fill-rule:evenodd; clip-rule:evenodd"
viewBox="0 0 512 512"
 xmlns:xlink="http://www.w3.org/1999/xlink">
 <defs>
  <style type="text/css">
   <![CDATA[
    .fil0 {fill:#4D4D4D}
    .fil2 {fill:#7ED63F}
    .fil1 {fill:#D9F2F2}
    .fil4 {fill:#F1F1F1}
    .fil3 {fill:#FFE600}
   ]]>
  </style>
 </defs>
 <g id="Layer_x0020_1">
  <metadata id="CorelCorpID_0Corel-Layer"/>
  <path class="fil0" d="M375 463c-25,-15 -41,-43 -41,-75 0,-70 77,-112 135,-76l0 -163 -455 0 0 314 361 0zm75 -52c-6,0 -22,-12 -29,-15 -3,-1 -5,-4 -5,-8l0 -47c0,-10 15,-10 15,0l0 43 22 14c7,3 4,13 -3,13zm-67 -293l-35 0c-4,0 -7,-4 -7,-8l0 -26 -74 0 0 27c0,4 -4,7 -7,7l-35 0c-4,0 -8,-4 -8,-8l0 -26 -73 0 0 27c0,4 -4,7 -8,7l-35 0c-4,0 -7,-4 -7,-8l0 -26 -80 0 0 50 455 0 0 -50 -78 0 0 27c0,4 -4,7 -8,7zm-42 -49l0 -27c0,-4 3,-8 7,-8l35 0c4,0 8,4 8,8l0 27 86 0c4,0 7,3 7,7l0 247c58,55 21,154 -61,155l-416 0c-4,0 -7,-4 -7,-8l0 -394c0,-4 3,-7 7,-7l87 0 0 -27c0,-4 3,-8 7,-8l35 0c4,0 8,4 8,8l0 27 73 0 0 -27c0,-4 4,-8 8,-8l35 0c4,0 7,4 7,8l0 27 74 0zm15 34l20 0c0,-18 0,-36 0,-54l-20 0 0 54zm-124 0l20 0c0,-18 0,-36 0,-54l-20 0 0 54zm-124 0l21 0 0 -54 -21 0c0,18 0,36 0,54zm208 334l-48 0c-4,0 -7,-4 -7,-8l0 -62c0,-4 3,-7 7,-7l48 0c4,0 7,3 7,7l0 62c0,4 -3,8 -7,8zm-40 -15l32 0 0 -47 -32 0 0 47zm-60 15l-58 0c-4,0 -7,-4 -7,-8l0 -62c0,-4 3,-7 7,-7l57 0c4,0 8,3 8,7l0 62c0,4 -3,8 -7,8zm-50 -15l42 0 0 -47 -42 0 0 47zm-61 15l-57 0c-4,0 -8,-4 -8,-8l0 -62c0,-4 4,-7 8,-7l57 0c4,0 7,3 7,7l0 62c0,4 -3,8 -7,8zm-50 -15l43 0 0 -47 -43 0 0 47zm271 -78l-58 0c-4,0 -7,-3 -7,-7l0 -62c0,-4 3,-8 7,-8l58 0c4,0 7,4 7,8l0 62c0,4 -3,7 -7,7zm-50 -14l42 0 0 -48 -42 0 0 48zm-60 14l-58 0c-4,0 -7,-3 -7,-7l0 -62c0,-4 3,-8 7,-8l57 0c4,0 8,4 8,8l0 62c0,4 -3,7 -7,7zm-50 -14l42 0 0 -48 -42 0 0 48zm-61 14l-57 0c-4,0 -8,-3 -8,-7l0 -62c0,-4 4,-8 8,-8l57 0c4,0 7,4 7,8l0 62c0,4 -3,7 -7,7zm-50 -14l43 0 0 -48 -43 0 0 48zm381 -79l-58 0c-4,0 -7,-3 -7,-7l0 -62c0,-4 3,-7 7,-7l58 0c4,0 7,3 7,7l0 62c0,5 -3,7 -7,7zm-50 -14l42 0 0 -48 -42 0 0 48zm-60 14l-58 0c-4,0 -7,-3 -7,-7l0 -62c0,-4 3,-7 7,-7l58 0c4,0 7,3 7,7l0 62c0,5 -3,7 -7,7zm-50 -14l42 0 0 -48 -42 0 0 48zm-60 14l-58 0c-4,0 -7,-3 -7,-7l0 -62c0,-4 3,-7 7,-7l57 0c4,0 8,3 8,7l0 62c0,5 -3,7 -7,7zm-50 -14l42 0 0 -48 -42 0 0 48zm-61 14l-57 0c-4,0 -8,-3 -8,-7l0 -62c0,-4 4,-7 8,-7l57 0c4,0 7,3 7,7l0 62c0,5 -3,7 -7,7zm-50 -14l43 0 0 -48 -43 0 0 48zm368 76c-41,0 -75,34 -75,75 0,42 34,75 75,75 41,0 75,-33 75,-75 0,-41 -34,-75 -75,-75z"/>
  <path class="fil1" d="M268 175l58 0c4,0 7,3 7,7l0 62c0,5 -3,7 -7,7l-58 0c-4,0 -7,-3 -7,-7l0 -62c0,-4 3,-7 7,-7zm58 92c4,0 7,4 7,8l0 62c0,4 -3,7 -7,7l-58 0c-4,0 -7,-3 -7,-7l0 -62c0,-4 3,-8 7,-8l58 0zm8 121c0,-70 77,-112 135,-76l0 -163 -455 0 0 314 361 0c-25,-15 -41,-43 -41,-75zm-66 -28l48 0c4,0 7,3 7,7l0 62c0,4 -3,8 -7,8l-48 0c-4,0 -7,-4 -7,-8l0 -62c0,-4 3,-7 7,-7zm-53 0c4,0 8,3 8,7l0 62c0,4 -3,8 -7,8l-58 0c-4,0 -7,-4 -7,-8l0 -62c0,-4 3,-7 7,-7l57 0zm0 -93c4,0 8,4 8,8l0 62c0,4 -3,7 -7,7l-58 0c-4,0 -7,-3 -7,-7l0 -62c0,-4 3,-8 7,-8l57 0zm-103 100l0 62c0,4 -3,8 -7,8l-57 0c-4,0 -8,-4 -8,-8l0 -62c0,-4 4,-7 8,-7l57 0c4,0 7,3 7,7zm111 -185l0 62c0,5 -3,7 -7,7l-58 0c-4,0 -7,-3 -7,-7l0 -62c0,-4 3,-7 7,-7l57 0c4,0 8,3 8,7zm-111 93l0 62c0,4 -3,7 -7,7l-57 0c-4,0 -8,-3 -8,-7l0 -62c0,-4 4,-8 8,-8l57 0c4,0 7,4 7,8zm259 -31l0 -62c0,-4 3,-7 7,-7l58 0c4,0 7,3 7,7l0 62c0,5 -3,7 -7,7l-58 0c-4,0 -7,-3 -7,-7zm-259 -62l0 62c0,5 -3,7 -7,7l-57 0c-4,0 -8,-3 -8,-7l0 -62c0,-4 4,-7 8,-7l57 0c4,0 7,3 7,7z"/>
  <path class="fil2" d="M14 134l455 0 0 -50 -78 0 0 27c0,4 -4,7 -8,7l-35 0c-4,0 -7,-4 -7,-8l0 -26 -74 0 0 27c0,4 -4,7 -7,7l-35 0c-4,0 -8,-4 -8,-8l0 -26 -73 0 0 27c0,4 -4,7 -8,7l-35 0c-4,0 -7,-4 -7,-8l0 -26 -80 0 0 50z"/>
  <polygon class="fil3" points="356,49 356,103 376,103 376,49 "/>
  <polygon class="fil3" points="252,103 252,49 232,49 232,103 "/>
  <polygon class="fil3" points="129,103 129,49 108,49 108,103 "/>
  <polygon class="fil3" points="318,189 276,189 276,237 318,237 "/>
  <polygon class="fil3" points="386,189 386,237 428,237 428,189 "/>
  <polygon class="fil3" points="318,282 276,282 276,330 318,330 "/>
  <polygon class="fil3" points="208,330 208,282 166,282 166,330 "/>
  <polygon class="fil3" points="166,237 208,237 208,189 166,189 "/>
  <polygon class="fil3" points="98,237 98,189 55,189 55,237 "/>
  <polygon class="fil3" points="98,282 55,282 55,330 98,330 "/>
  <polygon class="fil3" points="98,375 55,375 55,422 98,422 "/>
  <polygon class="fil3" points="166,375 166,422 208,422 208,375 "/>
  <polygon class="fil3" points="276,375 276,422 308,422 308,375 "/>
  <path class="fil4" d="M348 388c0,42 34,75 75,75 41,0 75,-33 75,-75 0,-41 -34,-75 -75,-75 -41,0 -75,34 -75,75zm102 23c-6,0 -22,-12 -29,-15 -3,-1 -5,-4 -5,-8l0 -47c0,-10 15,-10 15,0l0 43 22 14c7,3 4,13 -3,13z"/>
 </g>
</svg>
