<?xml version="1.0" encoding="UTF-8" standalone="no"?> <svg xmlns="http://www.w3.org/2000/svg" viewBox="0 0 64 64"><g id="flat"><path d="M48.966,5.033a1,1,0,0,0-1.413,0l-32.52,32.52a1,1,0,0,0,0,1.413A23.886,23.886,0,0,0,29.9,45.9c.032,0,.065,0,.1,0V54h4V45.9c.028,0,.057,0,.084-.005A23.982,23.982,0,0,0,48.966,5.033ZM47.552,37.554A21.907,21.907,0,0,1,33.9,43.905a19.572,19.572,0,0,1-3.819,0,21.886,21.886,0,0,1-12.915-5.658L48.245,7.17a21.979,21.979,0,0,1-.693,30.384Z" style="fill:#ffc200"/><path d="M51,22A18.989,18.989,0,0,1,22.42,38.4a18.007,18.007,0,0,1-2.73-1.94A18.256,18.256,0,0,1,17.2,33.9,19.01,19.01,0,0,1,31,3.02c.33-.01.67-.02,1-.02A19.05,19.05,0,0,1,44.99,8.14,18.918,18.918,0,0,1,51,22Z" style="fill:#1493cc"/><path d="M32,12H29l1,6-5,1v4l7,4v7l-9.58,4.4a18.007,18.007,0,0,1-2.73-1.94A18.256,18.256,0,0,1,17.2,33.9L22,31V28l-1-3V21l-2-2L18.85,8.3A18.921,18.921,0,0,1,31,3.02L35,8Z" style="fill:#355a15"/><path d="M43,17.96c0,.34-.01.69-.02,1.03A19.021,19.021,0,0,1,25.73,36.88c-.57.05-1.15.08-1.73.08a18.619,18.619,0,0,1-4.31-.5,17.812,17.812,0,0,1-2-1.98c-.15-.16-.28-.32-.42-.49-.02-.03-.05-.06-.07-.09A18.963,18.963,0,0,1,18.85,8.3a.462.462,0,0,0,.07-.07c.18-.17.36-.33.54-.49a18.5,18.5,0,0,1,4.46-2.93,6.974,6.974,0,0,1,.69-.31c.2-.09.42-.18.64-.26.15-.06.3-.12.46-.17.2-.07.41-.14.62-.2a.052.052,0,0,1,.04-.02c.23-.07.45-.14.68-.19a2.025,2.025,0,0,1,.33-.09c.23-.06.46-.11.69-.16.04-.01.09-.02.14-.03.3-.06.6-.11.9-.16s.63-.09.95-.12.63-.06.94-.08c.33-.01.67-.02,1-.02a18.619,18.619,0,0,1,4.31.5A18.946,18.946,0,0,1,43,17.96Z" style="fill:#3cb8ef"/><path d="M32,12H29l1,6-5,1v4l7,4v7l-6.27,2.88c-.57.05-1.15.08-1.73.08a18.619,18.619,0,0,1-4.31-.5,17.812,17.812,0,0,1-2-1.98c-.15-.16-.28-.32-.42-.49-.02-.03-.05-.06-.07-.09L22,31V28l-1-3V21l-2-2L18.85,8.3a.462.462,0,0,0,.07-.07c.18-.17.36-.33.54-.49a18.5,18.5,0,0,1,4.46-2.93,6.974,6.974,0,0,1,.69-.31c.2-.09.42-.18.64-.26.15-.06.3-.12.46-.17.2-.07.41-.14.62-.2a.052.052,0,0,1,.04-.02c.23-.07.45-.14.68-.19a2.025,2.025,0,0,1,.33-.09c.23-.06.46-.11.69-.16.04-.01.09-.02.14-.03.3-.06.6-.11.9-.16s.63-.09.95-.12.63-.06.94-.08L35,8Z" style="fill:#538723"/><polygon points="36 13 36 16 39 16 40.051 15 40 12 37 12 36 13" style="fill:#538723"/><path d="M39,57h0a4,4,0,0,0-4-4H29a4,4,0,0,0-4,4h0a4,4,0,0,0-4,4H43A4,4,0,0,0,39,57Z" style="fill:#bc6549"/><path d="M51,22a18.913,18.913,0,0,1-3.71,11.27L44,29.98v-5l-4-1v-4l3-1,2-3-.01-7.84A18.918,18.918,0,0,1,51,22Z" style="fill:#355a15"/><path d="M42.98,18.99a19.012,19.012,0,0,1-1.12,5.46L40,23.98v-4Z" style="fill:#538723"/><rect x="29" y="56" width="6" height="2" style="fill:#dd7b58"/></g></svg>
