<svg xmlns="http://www.w3.org/2000/svg" width="100%" height="auto" viewBox="0 0 1024 1024" version="1.1">
	<path d="M 481.561 119.252 C 465.644 146.888, 432.749 203.925, 408.461 246 C 299.233 435.218, 160.737 675.108, 106.355 769.282 C 73.711 825.812, 43.839 876.778, 39.973 882.540 C 36.107 888.302, 32.488 894.217, 31.930 895.685 C 31.371 897.153, 27.720 903.473, 23.814 909.729 C 19.909 915.985, 16.605 922.095, 16.472 923.306 C 16.339 924.517, 13.028 931.009, 9.115 937.733 C 5.202 944.456, 2 950.634, 2 951.462 C 2 952.800, 54.660 953.009, 474.750 953.342 C 734.763 953.549, 956.827 953.980, 968.227 954.300 C 980.785 954.654, 989.183 954.512, 989.536 953.942 C 989.861 953.416, 997.169 953, 1006.059 953 C 1018.933 953, 1022 952.735, 1022 951.622 C 1022 950.865, 1010.593 930.502, 996.651 906.372 C 982.709 882.243, 941.819 811.425, 905.784 749 C 800.283 566.232, 703.818 399.129, 674.008 347.500 C 658.765 321.100, 626.934 265.969, 603.273 224.987 C 579.611 184.005, 557.285 144.553, 553.658 137.316 C 550.032 130.079, 546.630 123.889, 546.098 123.561 C 545.566 123.232, 542.118 117.234, 538.435 110.232 C 534.752 103.229, 530.864 96.797, 529.794 95.938 C 528.724 95.080, 524.618 88.785, 520.669 81.951 C 516.720 75.117, 512.817 69.408, 511.995 69.265 C 510.971 69.086, 501.377 84.845, 481.561 119.252 M 505.125 86.334 C 501.619 92.475, 462.641 160.050, 418.507 236.500 C 374.373 312.950, 291.125 457.175, 233.512 557 C 175.898 656.825, 128.435 738.950, 128.038 739.500 C 126.436 741.721, 120.883 752, 121.284 752 C 121.522 752, 123.440 749.188, 125.547 745.750 C 129.833 738.758, 188.011 644.874, 264.201 522 C 291.995 477.175, 361.744 364.675, 419.198 272 C 476.653 179.325, 524.243 102.571, 524.955 101.436 C 526.108 99.596, 525.564 98.182, 519.957 88.436 C 516.497 82.421, 513.179 76.975, 512.583 76.334 C 511.785 75.475, 509.825 78.103, 505.125 86.334 M 498.948 150.202 C 482.831 176.216, 450.667 228.100, 427.474 265.500 C 404.281 302.900, 327.557 426.650, 256.977 540.500 C 186.397 654.350, 127.096 749.975, 125.198 753 C 123.300 756.025, 122.408 757.825, 123.216 757 C 124.024 756.175, 150.791 716.125, 182.698 668 C 214.605 619.875, 308.518 478.421, 391.392 353.659 L 542.073 126.817 535.162 114.861 L 528.252 102.905 498.948 150.202 M 533.249 146.250 C 527.769 154.637, 447.773 275.125, 355.480 414 C 164.493 701.384, 128.239 756.115, 130.263 754 C 131.611 752.592, 551.589 161.655, 555.426 155.768 L 557.206 153.037 550.853 142.026 C 547.359 135.971, 544.210 131.012, 543.857 131.008 C 543.503 131.004, 538.729 137.863, 533.249 146.250 M 347.500 454.066 C 101.581 800.194, 130.779 759, 131.363 759 C 131.622 759, 136.523 752.812, 142.253 745.250 C 147.983 737.688, 246.378 608.037, 360.910 457.138 C 475.441 306.239, 569.398 182.127, 569.702 181.334 C 570.253 179.899, 560.237 156.960, 559.097 157.044 C 558.769 157.068, 463.550 290.728, 347.500 454.066 M 370.416 449.691 C 259.912 595.309, 161.455 725.037, 151.621 737.976 C 129.056 767.667, 126.682 771.349, 143.565 750.473 C 178.867 706.822, 544.025 255.756, 560.684 235.222 L 582.002 208.944 577.353 197.722 C 574.795 191.550, 572.394 186.147, 572.017 185.716 C 571.640 185.285, 480.920 304.074, 370.416 449.691 M 366.785 479.282 C 248.691 625.152, 147.754 749.788, 142.480 756.250 C 137.206 762.713, 133.097 768, 133.350 768 C 133.602 768, 139.133 761.813, 145.639 754.250 C 171.681 723.983, 580.719 250.057, 586.028 244 L 591.725 237.500 587.210 225.750 C 584.726 219.287, 582.426 214.014, 582.097 214.032 C 581.769 214.050, 484.878 333.412, 366.785 479.282 M 375.346 492.251 C 132.910 773.104, 130.953 775.379, 137.644 768.500 C 140.319 765.750, 190.896 710.850, 250.038 646.500 C 515.991 357.127, 597.952 268.183, 598.968 267.844 C 600.004 267.499, 592.151 243.019, 591 243.007 C 590.725 243.004, 493.681 355.164, 375.346 492.251 M 628.671 278.750 C 631.297 283.563, 713.199 436.225, 810.674 618 L 987.902 948.500 1002.069 948.778 C 1013.409 949.001, 1016.135 948.795, 1015.734 947.749 C 1015.458 947.030, 988.472 900.105, 955.765 843.471 C 861.298 679.895, 638.953 294.656, 631.562 281.750 C 627.861 275.288, 624.622 270, 624.364 270 C 624.106 270, 626.044 273.938, 628.671 278.750 M 366.574 523.404 C 239.565 661.604, 135.701 775.087, 135.766 775.588 C 135.830 776.090, 184.622 787.400, 244.192 800.723 C 303.761 814.046, 453.750 847.605, 577.500 875.299 C 701.250 902.993, 802.641 925.552, 802.813 925.429 C 803.294 925.088, 598.569 272.015, 598 272.077 C 597.725 272.107, 493.583 385.204, 366.574 523.404 M 640.814 313 C 651.227 334.175, 698.077 428.675, 744.927 523 C 791.776 617.325, 858.521 751.763, 893.250 821.750 L 956.393 949 970.267 949 L 984.140 949 980.165 941.750 C 977.979 937.763, 931.087 850.350, 875.961 747.500 C 820.835 644.650, 749.314 511.225, 717.027 451 C 684.739 390.775, 650.522 326.875, 640.989 309 C 631.456 291.125, 623.257 276.050, 622.769 275.500 C 622.281 274.950, 630.402 291.825, 640.814 313 M 618.236 277 C 618.540 277.825, 622.446 286.375, 626.915 296 C 631.384 305.625, 700.442 456.375, 780.376 631 L 925.712 948.500 938.856 948.779 C 946.085 948.932, 952 948.846, 952 948.588 C 952 947.477, 619.228 276.860, 618.250 276 C 617.937 275.725, 617.931 276.175, 618.236 277 M 603.039 277.353 C 603.018 277.822, 612.412 308.197, 623.916 344.853 C 696.271 575.407, 805.886 925.813, 806.177 927.487 C 806.473 929.189, 808.301 929.809, 818.873 931.793 C 825.665 933.068, 831.377 933.956, 831.566 933.767 C 831.756 933.578, 814.365 883.040, 792.921 821.462 C 706.710 573.897, 685.346 512.561, 645.073 397 C 621.976 330.725, 603.061 276.884, 603.039 277.353 M 607.238 280.064 C 608.989 284.983, 654.133 414.535, 694.506 530.500 C 720.165 604.200, 756.909 709.725, 776.160 765 C 795.410 820.275, 816.574 881.079, 823.190 900.119 C 829.807 919.159, 835.551 935.274, 835.956 935.929 C 836.598 936.968, 860.851 941.604, 861.456 940.803 C 861.582 940.637, 843.522 893.250, 821.323 835.500 C 782.795 735.268, 760.211 676.457, 654.471 401 C 628.818 334.175, 607.572 279.275, 607.256 279 C 606.940 278.725, 606.932 279.204, 607.238 280.064 M 611 279.155 C 611 279.424, 621.278 306.386, 633.840 339.072 C 646.402 371.757, 703.633 520.900, 761.019 670.500 C 818.406 820.100, 865.431 942.615, 865.519 942.756 C 865.823 943.243, 889.237 946.101, 890.462 945.801 C 891.243 945.610, 847.153 839.576, 769.335 654.500 C 702.039 494.450, 639.057 344.600, 629.375 321.500 C 613.034 282.514, 611 277.826, 611 279.155 M 615.082 279.030 C 615.037 279.322, 616.615 283.372, 618.590 288.030 C 624.926 302.982, 810.733 745.014, 853.761 847.500 C 876.621 901.950, 895.458 946.669, 895.622 946.876 C 896.122 947.510, 920.940 949.393, 921.493 948.840 C 921.778 948.555, 854.261 800.312, 771.455 619.411 C 617.524 283.127, 615.222 278.117, 615.082 279.030 M 378.904 527.090 C 255.482 653.124, 154.377 756.751, 154.226 757.372 C 154.055 758.076, 171.894 763.102, 201.726 770.753 C 228.002 777.492, 354.575 810.006, 483 843.007 C 789.688 921.815, 776.796 918.538, 777.462 917.871 C 777.782 917.552, 764.798 869.863, 748.610 811.895 C 712.160 681.370, 644.418 438.714, 622.051 358.554 C 612.852 325.584, 604.871 298.457, 604.316 298.272 C 603.761 298.087, 502.326 401.055, 378.904 527.090 M 380.109 529.225 C 192.312 721.057, 158.012 756.522, 159.609 757.213 C 160.649 757.663, 205.375 769.291, 259 783.052 C 353.356 807.267, 381.261 814.431, 504 845.956 C 535.625 854.079, 609.320 873.004, 667.767 888.012 C 726.214 903.020, 774.208 915.119, 774.420 914.899 C 774.632 914.680, 769.211 894.475, 762.372 870 C 749.088 822.459, 724.912 735.878, 655.006 485.500 C 630.896 399.150, 609.501 322.538, 607.459 315.250 C 605.418 307.962, 603.467 302.013, 603.124 302.028 C 602.781 302.043, 502.424 404.282, 380.109 529.225 M 392.174 533.669 C 274.294 646.737, 178.219 739.606, 178.674 740.044 C 179.550 740.889, 746.785 906, 748.811 906 C 749.465 906, 750 905.604, 750 905.121 C 750 904.637, 739.850 862.900, 727.444 812.371 C 715.038 761.842, 699.986 700.475, 693.995 676 C 688.003 651.525, 671.826 585.600, 658.044 529.500 C 644.263 473.400, 627.492 405.113, 620.775 377.750 C 614.058 350.387, 608.098 328.020, 607.531 328.045 C 606.964 328.070, 510.053 420.601, 392.174 533.669 M 394.500 534.479 C 277.900 646.285, 182.505 738.154, 182.511 738.632 C 182.518 739.109, 203.668 745.637, 229.511 753.139 C 255.355 760.640, 346.250 787.043, 431.500 811.812 C 516.750 836.581, 622.414 867.280, 666.308 880.031 C 710.203 892.783, 746.361 902.972, 746.659 902.674 C 747.312 902.021, 751.390 918.791, 671.005 591.500 C 660.063 546.950, 641.408 470.900, 629.549 422.500 C 617.690 374.100, 607.653 333.756, 607.244 332.848 C 606.662 331.555, 560.385 375.414, 394.500 534.479 M 409.935 536.579 C 300.796 634.798, 209.536 717.093, 207.135 719.458 L 202.769 723.757 216.635 728.337 C 224.261 730.856, 336.025 767.170, 465 809.035 C 593.975 850.900, 704.788 886.873, 711.250 888.973 C 724.437 893.260, 724.082 893.402, 721.996 884.693 C 721.444 882.387, 704.326 801.975, 683.957 706 C 650.820 549.868, 633.262 467.174, 616.437 388 C 609.689 356.244, 610.114 358, 609.166 358 C 608.729 358, 519.075 438.361, 409.935 536.579 M 407.546 541.364 C 297.572 640.465, 207.721 721.987, 207.878 722.524 C 208.134 723.398, 720.094 890.239, 720.691 889.642 C 720.827 889.507, 717.114 871.419, 712.440 849.448 C 703.246 806.226, 692.629 756.260, 673.992 668.500 C 667.451 637.700, 650.152 556.282, 635.549 487.572 C 620.947 418.861, 609 362.274, 609 361.822 C 609 361.370, 608.663 361.041, 608.250 361.090 C 607.837 361.140, 517.521 442.263, 407.546 541.364 M 523.795 459.250 C 477.440 498.438, 392.331 570.389, 334.665 619.141 C 276.998 667.894, 229.833 708.124, 229.854 708.542 C 229.875 708.959, 245.779 715.026, 265.196 722.024 C 586.108 837.677, 696.215 877.118, 696.732 876.601 C 697.504 875.830, 700.872 894.894, 651.441 620.237 C 628.648 493.593, 610 389.530, 610 388.987 C 610 388.444, 609.568 388, 609.039 388 C 608.510 388, 570.151 420.063, 523.795 459.250 M 420.438 549.011 C 317.622 635.930, 233.391 707.373, 233.257 707.773 C 233.124 708.173, 336.849 745.890, 463.757 791.588 C 594.965 838.835, 694.613 874.207, 694.762 873.588 C 694.907 872.990, 684.938 816.475, 672.610 748 C 660.281 679.525, 640.865 571.525, 629.461 508 C 618.058 444.475, 608.424 392.157, 608.052 391.738 C 607.680 391.319, 523.254 462.092, 420.438 549.011 M 431.500 556.221 C 335.800 632.144, 257.500 694.732, 257.500 695.307 C 257.500 696.427, 669.771 860.144, 671.575 859.741 C 672.276 859.584, 668.886 834.046, 661.854 786.500 C 655.916 746.350, 645.376 675.025, 638.433 628 C 631.489 580.975, 621.689 514.637, 616.654 480.582 C 611.619 446.527, 607.050 418.556, 606.500 418.422 C 605.950 418.289, 527.200 480.299, 431.500 556.221 M 432.511 557.525 C 337.917 632.550, 260.392 694.325, 260.232 694.804 C 260.073 695.282, 266.413 698.211, 274.323 701.312 C 282.232 704.413, 374.559 740.947, 479.494 782.499 C 584.429 824.051, 670.385 857.925, 670.506 857.774 C 670.628 857.623, 667.683 837.025, 663.962 812 C 655.562 755.502, 639.399 646.001, 621.012 521 C 605.942 418.553, 606.324 420.971, 605.231 421.058 C 604.829 421.091, 527.105 482.501, 432.511 557.525 M 443.500 565.547 C 356.600 630.153, 285.374 683.389, 285.219 683.848 C 284.866 684.900, 647.275 841.952, 648.124 841.115 C 648.568 840.678, 603.821 450.341, 603.088 448.250 C 603.039 448.113, 602.663 448.019, 602.250 448.041 C 601.837 448.064, 530.400 500.942, 443.500 565.547 M 444.273 566.824 C 340.682 643.706, 287.479 683.778, 288.282 684.316 C 289.884 685.388, 646.420 839.703, 646.768 839.474 C 646.915 839.377, 640.037 778.819, 631.485 704.899 C 622.932 630.980, 612.816 543.555, 609.005 510.621 C 605.194 477.688, 601.942 450.609, 601.779 450.445 C 601.615 450.282, 530.738 502.652, 444.273 566.824 M 454.998 575.608 C 377.724 629.292, 314.138 673.552, 313.695 673.963 C 312.917 674.685, 622.750 821, 625.056 821 C 625.850 821, 626.007 819.253, 625.573 815.250 C 625.231 812.087, 618.892 736.825, 611.488 648 C 597.445 479.547, 597.306 478, 596.187 478 C 595.807 478, 532.272 521.924, 454.998 575.608 M 455.304 576.801 C 378.747 629.985, 316.084 673.774, 316.054 674.109 C 315.999 674.730, 622.168 819, 623.543 819 C 624.528 819, 625.059 825.791, 610.039 646.500 C 595.912 477.865, 596.101 479.977, 595.152 480.051 C 594.793 480.079, 531.862 523.616, 455.304 576.801 M 465.916 586.530 C 398.587 630.273, 343.569 666.359, 343.653 666.721 C 343.737 667.083, 402.237 697.178, 473.653 733.599 L 603.500 799.818 603.778 796.159 C 604.095 791.993, 589.263 507.929, 588.699 507.365 C 588.496 507.163, 533.244 542.787, 465.916 586.530 M 466.475 587.522 C 400.005 630.711, 345.480 666.187, 345.309 666.358 C 345.138 666.528, 402.925 696.191, 473.725 732.275 C 544.525 768.359, 602.586 797.747, 602.751 797.583 C 603.130 797.203, 588.065 509.731, 587.643 509.310 C 587.471 509.138, 532.946 544.334, 466.475 587.522 M 476.091 598.341 C 420.385 632.079, 374.738 660.091, 374.654 660.591 C 374.489 661.564, 582.836 776.498, 583.521 775.812 C 583.746 775.588, 582.826 723.676, 581.476 660.452 C 580.127 597.228, 579.018 543.587, 579.012 541.250 C 579.005 538.913, 578.634 537, 578.188 537 C 577.741 537, 531.797 564.604, 476.091 598.341 M 477.036 598.918 C 421.781 632.394, 376.464 660.169, 376.331 660.641 C 376.126 661.372, 582.121 775.123, 582.707 774.603 C 582.980 774.361, 578.099 543.164, 577.761 540.277 C 577.529 538.300, 566.370 544.796, 477.036 598.918 M 558.797 569.807 C 555.110 571.879, 551.735 573.971, 551.297 574.456 C 550.368 575.484, 564.037 568.155, 565.450 566.866 C 567.178 565.290, 565.576 565.999, 558.797 569.807 M 542.797 578.807 C 539.110 580.879, 535.735 582.971, 535.297 583.456 C 534.368 584.484, 548.037 577.155, 549.450 575.866 C 551.178 574.290, 549.576 574.999, 542.797 578.807 M 526.797 587.807 C 523.110 589.879, 519.735 591.971, 519.297 592.456 C 518.368 593.484, 532.037 586.155, 533.450 584.866 C 535.178 583.290, 533.576 583.999, 526.797 587.807 M 565.450 625.500 C 565.451 644.750, 565.585 652.483, 565.749 642.685 C 565.913 632.888, 565.912 617.138, 565.748 607.685 C 565.584 598.233, 565.450 606.250, 565.450 625.500 M 514.750 594.572 C 511.012 596.600, 511.239 597.445, 515 595.500 C 516.650 594.647, 518 593.735, 518 593.474 C 518 592.831, 517.893 592.867, 514.750 594.572 M 503.797 600.807 C 500.110 602.879, 496.735 604.971, 496.297 605.456 C 495.368 606.484, 509.037 599.155, 510.450 597.866 C 512.178 596.290, 510.576 596.999, 503.797 600.807 M 487.797 609.807 C 484.110 611.879, 480.735 613.971, 480.297 614.456 C 479.368 615.484, 493.037 608.155, 494.450 606.866 C 496.178 605.290, 494.576 605.999, 487.797 609.807 M 471.797 618.807 C 468.110 620.879, 464.735 622.971, 464.297 623.456 C 463.368 624.484, 477.037 617.155, 478.450 615.866 C 480.178 614.290, 478.576 614.999, 471.797 618.807 M 455.797 627.807 C 452.110 629.879, 448.735 631.971, 448.297 632.456 C 447.368 633.484, 461.037 626.155, 462.450 624.866 C 464.178 623.290, 462.576 623.999, 455.797 627.807 M 443.750 634.572 C 440.012 636.600, 440.239 637.445, 444 635.500 C 445.650 634.647, 447 633.735, 447 633.474 C 447 632.831, 446.893 632.867, 443.750 634.572 M 432.797 640.807 C 429.110 642.879, 425.735 644.971, 425.297 645.456 C 424.368 646.484, 438.037 639.155, 439.450 637.866 C 441.178 636.290, 439.576 636.999, 432.797 640.807 M 416.797 649.807 C 413.110 651.879, 409.735 653.971, 409.297 654.456 C 408.368 655.484, 422.037 648.155, 423.450 646.866 C 425.178 645.290, 423.576 645.999, 416.797 649.807 M 438 654.378 C 438 654.585, 438.788 655.373, 439.750 656.128 C 441.336 657.371, 441.371 657.336, 440.128 655.750 C 438.821 654.084, 438 653.555, 438 654.378 M 406.153 655.884 C 405.180 656.501, 406.569 657.790, 411.153 660.529 C 414.644 662.614, 417.950 664.507, 418.500 664.734 C 420.387 665.515, 416.180 662.499, 411.536 659.742 C 408.982 658.225, 407.168 656.538, 407.505 655.992 C 408.249 654.788, 407.924 654.762, 406.153 655.884 M 420 665.318 C 420 665.557, 424.387 668.350, 429.750 671.523 C 441.686 678.585, 441 678.209, 441 677.682 C 441 677.443, 436.613 674.650, 431.250 671.477 C 419.314 664.415, 420 664.791, 420 665.318 M 442 678.430 C 442 678.705, 442.900 679.411, 444 680 C 445.100 680.589, 446 680.845, 446 680.570 C 446 680.295, 445.100 679.589, 444 679 C 442.900 678.411, 442 678.155, 442 678.430 M 447 681.327 C 447 681.572, 450.262 683.689, 454.250 686.031 C 463.447 691.434, 463 691.196, 463 690.673 C 463 690.428, 459.738 688.311, 455.750 685.969 C 446.553 680.566, 447 680.804, 447 681.327 M 483 683.430 C 483 683.705, 483.900 684.411, 485 685 C 486.100 685.589, 487 685.845, 487 685.570 C 487 685.295, 486.100 684.589, 485 684 C 483.900 683.411, 483 683.155, 483 683.430 M 564.236 716.750 C 564.076 738.633, 563.660 749, 562.941 749 C 562.359 749, 562.184 749.489, 562.554 750.087 C 564.558 753.330, 565.004 746.596, 564.750 716.936 L 564.471 684.500 564.236 716.750 M 464 691.430 C 464 691.705, 464.900 692.411, 466 693 C 467.100 693.589, 468 693.845, 468 693.570 C 468 693.295, 467.100 692.589, 466 692 C 464.900 691.411, 464 691.155, 464 691.430 M 469 694.327 C 469 694.572, 472.262 696.689, 476.250 699.031 C 485.447 704.434, 485 704.196, 485 703.673 C 485 703.428, 481.738 701.311, 477.750 698.969 C 468.553 693.566, 469 693.804, 469 694.327 M 486 704.430 C 486 704.705, 486.900 705.411, 488 706 C 489.100 706.589, 490 706.845, 490 706.570 C 490 706.295, 489.100 705.589, 488 705 C 486.900 704.411, 486 704.155, 486 704.430 M 491 707.430 C 491 707.705, 491.900 708.411, 493 709 C 494.100 709.589, 495 709.845, 495 709.570 C 495 709.295, 494.100 708.589, 493 708 C 491.900 707.411, 491 707.155, 491 707.430 M 496.500 710.702 C 497.050 711.270, 499.750 712.993, 502.500 714.532 C 505.250 716.070, 507.050 716.865, 506.500 716.298 C 505.950 715.730, 503.250 714.007, 500.500 712.468 C 497.750 710.930, 495.950 710.135, 496.500 710.702 M 508 717.430 C 508 717.705, 508.900 718.411, 510 719 C 511.100 719.589, 512 719.845, 512 719.570 C 512 719.295, 511.100 718.589, 510 718 C 508.900 717.411, 508 717.155, 508 717.430 M 513 720.430 C 513 720.705, 513.900 721.411, 515 722 C 516.100 722.589, 517 722.845, 517 722.570 C 517 722.295, 516.100 721.589, 515 721 C 513.900 720.411, 513 720.155, 513 720.430 M 543.733 722.124 C 544.412 722.808, 545.219 723.115, 545.526 722.807 C 545.834 722.499, 545.279 721.940, 544.293 721.564 C 542.868 721.022, 542.753 721.136, 543.733 722.124 M 518 723.430 C 518 723.705, 518.900 724.411, 520 725 C 521.100 725.589, 522 725.845, 522 725.570 C 522 725.295, 521.100 724.589, 520 724 C 518.900 723.411, 518 723.155, 518 723.430 M 523 726.449 C 523 726.724, 524.350 727.647, 526 728.500 C 527.650 729.353, 529 729.826, 529 729.551 C 529 729.276, 527.650 728.353, 526 727.500 C 524.350 726.647, 523 726.174, 523 726.449 M 530 730.430 C 530 730.705, 530.900 731.411, 532 732 C 533.100 732.589, 534 732.845, 534 732.570 C 534 732.295, 533.100 731.589, 532 731 C 530.900 730.411, 530 730.155, 530 730.430 M 535 733.430 C 535 733.705, 535.900 734.411, 537 735 C 538.100 735.589, 539 735.845, 539 735.570 C 539 735.295, 538.100 734.589, 537 734 C 535.900 733.411, 535 733.155, 535 733.430 M 540 736.430 C 540 736.705, 540.900 737.411, 542 738 C 543.100 738.589, 544 738.845, 544 738.570 C 544 738.295, 543.100 737.589, 542 737 C 540.900 736.411, 540 736.155, 540 736.430 M 545 739.430 C 545 739.705, 545.900 740.411, 547 741 C 548.100 741.589, 549 741.845, 549 741.570 C 549 741.295, 548.100 740.589, 547 740 C 545.900 739.411, 545 739.155, 545 739.430 M 552 743.430 C 552 743.705, 552.900 744.411, 554 745 C 555.100 745.589, 556 745.845, 556 745.570 C 556 745.295, 555.100 744.589, 554 744 C 552.900 743.411, 552 743.155, 552 743.430 M 557 746.430 C 557 746.705, 557.900 747.411, 559 748 C 560.100 748.589, 561 748.845, 561 748.570 C 561 748.295, 560.100 747.589, 559 747 C 557.900 746.411, 557 746.155, 557 746.430 M 128.872 761.750 C 127.629 763.336, 127.664 763.371, 129.250 762.128 C 130.213 761.373, 131 760.585, 131 760.378 C 131 759.555, 130.179 760.084, 128.872 761.750 M 121.568 786.205 C 113.906 795.077, 112.999 796.509, 114.627 797.159 C 115.657 797.571, 157 805.606, 206.500 815.017 C 275.329 828.101, 742.954 917.290, 786.358 925.611 C 799.012 928.038, 796.107 926.618, 782.232 923.596 C 770.961 921.140, 556.671 873.274, 238.147 802.061 C 179.652 788.983, 131.476 777.770, 131.088 777.142 C 130.653 776.438, 126.996 779.920, 121.568 786.205 M 103.823 804.177 C 101.372 807.105, 97.670 811.619, 95.597 814.209 C 91.854 818.883, 91.843 818.922, 94.163 819.477 C 95.448 819.784, 238.700 842.534, 412.500 870.031 C 586.300 897.529, 741.244 922.073, 756.820 924.573 C 772.397 927.074, 785.587 928.971, 786.132 928.789 C 786.676 928.608, 761.557 923.597, 730.311 917.654 C 699.065 911.712, 573.375 887.743, 451 864.390 C 328.625 841.037, 202.400 816.963, 170.500 810.892 C 138.600 804.821, 111.550 799.628, 110.390 799.353 C 108.767 798.969, 107.251 800.082, 103.823 804.177 M 80.121 832.073 C 76.063 837.575, 72.926 842.259, 73.150 842.483 C 73.374 842.707, 186.044 857.107, 323.529 874.482 C 461.013 891.858, 621.398 912.142, 679.940 919.557 C 738.483 926.973, 786.771 932.910, 787.249 932.750 C 787.726 932.591, 761.653 928.279, 729.308 923.169 C 696.964 918.058, 636.750 908.520, 595.500 901.974 C 254.106 847.798, 90.765 822.005, 89.266 822.035 C 88.209 822.056, 84.538 826.086, 80.121 832.073 M 64.777 852.124 C 58.037 861.665, 54.661 866.998, 55.104 867.404 C 55.322 867.604, 79.800 870.065, 109.500 872.874 C 139.200 875.683, 230.100 884.275, 311.500 891.968 C 683.901 927.163, 757.535 934.134, 772.335 935.598 C 781.044 936.459, 788.350 936.983, 788.571 936.763 C 788.791 936.542, 766.815 933.585, 739.736 930.191 C 712.656 926.797, 644.375 918.185, 588 911.053 C 531.625 903.921, 444.550 892.907, 394.500 886.578 C 344.450 880.249, 253.325 868.716, 192 860.950 C 130.675 853.184, 77.976 846.587, 74.891 846.289 L 69.281 845.748 64.777 852.124 M 45.692 882.250 C 42.130 888.438, 39.504 893.610, 39.857 893.744 C 40.211 893.879, 112.050 898.484, 199.500 903.978 C 286.950 909.472, 451.650 919.820, 565.500 926.974 C 679.350 934.127, 776.775 940.187, 782 940.440 L 791.500 940.899 783.500 939.952 C 779.100 939.430, 689.550 930.889, 584.500 920.972 C 479.450 911.055, 317.520 895.754, 224.655 886.970 C 131.791 878.187, 54.991 871, 53.990 871 C 52.721 871, 50.207 874.407, 45.692 882.250 M 30.497 908.616 C 26.843 914.980, 24.070 920.404, 24.335 920.669 C 24.600 920.933, 80.546 922.905, 148.658 925.051 C 632.460 940.289, 783.940 944.992, 787 944.873 C 791.830 944.685, 779.081 943.870, 391.500 919.584 C 202.850 907.764, 45.944 897.857, 42.820 897.569 L 37.141 897.045 30.497 908.616 M 16.914 932.250 C 14.618 936.237, 11.453 941.638, 9.879 944.250 L 7.018 949 395.259 948.792 C 608.792 948.678, 779.225 948.445, 774 948.273 C 768.775 948.102, 628.375 943.695, 462 938.481 C 295.625 933.266, 131.245 928.100, 96.712 927 C 62.179 925.900, 31.036 925, 27.506 925 L 21.088 925 16.914 932.250 M 788.750 929.662 C 789.438 929.940, 790.563 929.940, 791.250 929.662 C 791.938 929.385, 791.375 929.158, 790 929.158 C 788.625 929.158, 788.063 929.385, 788.750 929.662 M 790.750 933.662 C 791.438 933.940, 792.563 933.940, 793.250 933.662 C 793.938 933.385, 793.375 933.158, 792 933.158 C 790.625 933.158, 790.063 933.385, 790.750 933.662" stroke="none" fill="black" fill-rule="evenodd"/>
</svg>