<?xml version="1.0" encoding="UTF-8"?>
<!DOCTYPE svg PUBLIC "-//W3C//DTD SVG 1.1//EN" "http://www.w3.org/Graphics/SVG/1.1/DTD/svg11.dtd">
<!-- Creator: CorelDRAW -->
<svg xmlns="http://www.w3.org/2000/svg" xml:space="preserve" width="1.70666in" height="1.70666in" version="1.1" style="shape-rendering:geometricPrecision; text-rendering:geometricPrecision; image-rendering:optimizeQuality; fill-rule:evenodd; clip-rule:evenodd"
viewBox="0 0 1707 1707"
 xmlns:xlink="http://www.w3.org/1999/xlink">
 <defs>
  <style type="text/css">
   <![CDATA[
    .fil0 {fill:#FF6530}
    .fil1 {fill:white}
   ]]>
  </style>
 </defs>
 <g id="Layer_x0020_1">
  <metadata id="CorelCorpID_0Corel-Layer"/>
  <g id="_372017032">
   <path class="fil0" d="M109 1706c-11,0 -20,-2 -27,-7 -50,-33 10,-135 86,-265 30,-51 62,-104 82,-147 27,-60 21,-76 18,-80 -95,-130 -145,-285 -145,-447 0,-203 79,-394 223,-537 143,-144 334,-223 537,-223 203,0 394,79 538,223 143,143 222,334 222,537 0,203 -79,394 -222,538 -144,143 -335,222 -538,222 -74,0 -147,-10 -217,-31 -1,0 -3,-1 -5,-1 -40,0 -149,53 -255,103 -125,59 -242,115 -297,115z"/>
   <path class="fil1" d="M972 1284l-237 0c-15,0 -27,-12 -27,-26l0 -38c0,-9 8,-17 17,-17l24 0c12,0 23,-10 23,-23l0 -582c0,-13 -11,-23 -23,-23l-24 0c-9,0 -17,-7 -17,-16l0 -38c0,-15 12,-27 27,-27l183 0c10,0 17,8 17,17l0 669c0,13 10,23 23,23l24 0c9,0 16,8 16,17l0 38c0,14 -11,26 -26,26zm-119 -848c-55,0 -100,-45 -100,-100 0,-55 45,-100 100,-100 55,0 100,45 100,100 0,55 -45,100 -100,100z"/>
  </g>
 </g>
</svg>
