<?xml version="1.0" encoding="UTF-8"?>
<!DOCTYPE svg PUBLIC "-//W3C//DTD SVG 1.1//EN" "http://www.w3.org/Graphics/SVG/1.1/DTD/svg11.dtd">
<!-- Creator: CorelDRAW -->
<svg xmlns="http://www.w3.org/2000/svg" xml:space="preserve" width="512px" height="512px" version="1.1" style="shape-rendering:geometricPrecision; text-rendering:geometricPrecision; image-rendering:optimizeQuality; fill-rule:evenodd; clip-rule:evenodd"
viewBox="0 0 512 512"
 xmlns:xlink="http://www.w3.org/1999/xlink">
 <defs>
  <style type="text/css">
   <![CDATA[
    .fil1 {fill:#FFBA00}
    .fil0 {fill:#FFCF00}
   ]]>
  </style>
 </defs>
 <g id="Layer_x0020_1">
  <metadata id="CorelCorpID_0Corel-Layer"/>
  <g id="_298830704">
   <path class="fil0" d="M67 393c-1,0 -1,0 -2,0 -1,0 -2,-1 -2,-1 -1,-1 -2,-2 -2,-3 -1,0 -1,-1 -1,-2l-60 -294c0,-2 1,-5 3,-7 3,-1 6,-1 9,1l107 93c1,1 2,3 2,5l4 57c0,2 -1,3 -2,5 -1,1 -3,2 -5,2 -18,0 -33,15 -33,33l0 9c0,18 15,33 33,33l79 0c18,0 33,-15 33,-33l0 -9c0,-18 -15,-33 -33,-33 -3,0 -6,-2 -7,-5l-22 -73c0,-2 0,-4 1,-6l84 -119c0,0 1,0 1,-1 1,0 1,-1 2,-1 1,-1 2,-1 3,-1 0,0 0,0 0,0 1,0 2,0 3,1 1,0 1,1 2,1 0,0 1,1 1,1l84 119c1,2 1,4 1,6l-24 73c-1,3 -4,5 -7,5 -19,0 -34,15 -34,33l0 9c0,18 15,33 33,33l80 0c18,0 32,-14 32,-33l0 -9c0,-18 -14,-33 -32,-34 -4,0 -7,-3 -7,-7l0 -56c0,-2 1,-4 2,-5l107 -93c3,-2 6,-3 9,-1 2,1 3,4 3,7l-60 294c-1,4 -4,6 -7,6l-378 0c0,0 0,0 0,0z"/>
   <path class="fil1" d="M445 469l-378 0c-4,0 -7,-3 -7,-7l0 -76 392 0 0 76c0,4 -3,7 -7,7z"/>
   <path class="fil1" d="M256 207c-22,0 -40,-18 -40,-40 0,-21 18,-39 40,-39 22,0 40,18 40,39 0,22 -18,40 -40,40z"/>
  </g>
 </g>
</svg>
